<svg id="Capa_1" data-name="Capa 1" xmlns="http://www.w3.org/2000/svg" viewBox="0 0 538.55 550.17"><defs><style>.cls-1,.cls-2{fill:none;stroke:#000;stroke-width:14px;}.cls-1{stroke-linejoin:round;}.cls-2{stroke-linejoin:bevel;}.cls-3{font-size:72px;font-family:SansSerifCollection, Sans Serif Collection;}.cls-4{letter-spacing:-0.02em;}.cls-5{letter-spacing:0em;}</style></defs><path class="cls-1" d="M517,253" transform="translate(-255.38 -58)"/><path class="cls-1" d="M523,265" transform="translate(-255.38 -58)"/><path class="cls-1" d="M497.34,323.79c15.5,8.18,30.6,6.89,45-3.12,19.66-13.67,24-64.86-26.05-67.17C462,251,472,186,513,172l30.5-13.09" transform="translate(-255.38 -58)"/><polygon class="cls-1" points="264.47 7 391.62 56 262.55 112 129.62 59 264.47 7"/><polyline class="cls-1" points="391.62 56 391.62 227 260.62 283 129.62 227 129.62 59"/><line class="cls-1" x1="323.37" y1="85.5" x2="203.36" y2="30.5"/><path class="cls-2" d="M497.34,323.79C475,312,465,260,514,253" transform="translate(-255.38 -58)"/><text class="cls-3" transform="translate(0 423.81)">Sabo<tspan class="cls-4" x="167.76" y="0">r</tspan><tspan class="cls-5" x="196.05" y="0">es Ocultos</tspan></text></svg>